<?xml version="1.0" encoding="iso-8859-1"?>
<!-- Generator: Adobe Illustrator 21.0.0, SVG Export Plug-In . SVG Version: 6.00 Build 0)  -->
<svg xmlns="http://www.w3.org/2000/svg" xmlns:xlink="http://www.w3.org/1999/xlink" version="1.1" id="Capa_1" x="0px" y="0px" viewBox="0 0 512 512" style="enable-background:new 0 0 512 512;" xml:space="preserve" width="512" height="512">
<g>
	<g>
		<g>
			<!-- <circle style="fill:#FFCE00;" cx="256" cy="256" r="256"/> -->
		</g>
	</g>
	<!-- <path style="fill:#FFA426;" d="M512,256c0-57.608-19.032-110.769-51.147-153.545h0l-66.993,17.581l-26.279-26.279l-16.63,42.947   L51.147,102.455L291.07,342.378l-184.097,90.562l64.897,64.897C198.222,507.003,226.526,512,256,512   C397.385,512,512,397.385,512,256z"/> -->
	<g>
		<path style="fill:#1F5F8F;" d="M256,143.177c70.464,0,136.941-11.568,187.186-32.572c6.217-2.599,12.098-5.322,17.668-8.15    c-6.207-8.268-12.904-16.146-20.046-23.595c-2.964,1.382-6.021,2.74-9.193,4.066c-46.663,19.507-109.031,30.25-175.614,30.25    c-66.583,0-128.951-10.743-175.614-30.25c-3.172-1.326-6.228-2.685-9.193-4.066c-7.142,7.449-13.839,15.327-20.046,23.595    c5.57,2.828,11.451,5.551,17.668,8.15C119.058,131.609,185.535,143.177,256,143.177z"/>
	</g>
	<g>
		<path style="fill:#0F3E56;" d="M440.807,78.86c-2.964,1.382-6.021,2.74-9.193,4.066c-46.663,19.507-109.031,30.25-175.614,30.25    c-0.135,0-0.27-0.002-0.405-0.002v30c0.135,0,0.27,0.002,0.405,0.002c70.464,0,136.941-11.568,187.186-32.572    c6.217-2.599,12.098-5.322,17.668-8.15C454.646,94.187,447.949,86.309,440.807,78.86z"/>
	</g>
	<g>
		<path style="fill:#DE4726;" d="M405.027,432.939c-99.05,10.935-199.003,10.935-298.054,0    c12.482-113.061,24.964-226.122,37.446-339.183c74.162,8.188,149,8.188,223.162,0    C380.063,206.818,392.545,319.878,405.027,432.939z"/>
	</g>
	<g>
		<path style="fill:#C42F12;" d="M405.027,432.939c-12.482-113.062-24.964-226.121-37.446-339.183    c-37.215,4.108-74.601,6.153-111.986,6.138v341.245C305.481,441.154,355.367,438.421,405.027,432.939z"/>
	</g>
	<g>
		<g>
			<path style="fill:#FF8257;" d="M164.653,284.785L118.98,330.87l45.673,46.085l45.673-46.085L164.653,284.785z M146.477,330.886     l18.177-18.36l18.177,18.332l-18.177,18.361L146.477,330.886z"/>
		</g>
		<g>
			<path style="fill:#FF8257;" d="M256,284.785l-45.673,46.085L256,376.955l45.673-46.085L256,284.785z M237.823,330.886     L256,312.525l18.177,18.332L256,349.217L237.823,330.886z"/>
		</g>
		<g>
			<polygon style="fill:#FF7045;" points="301.673,330.87 256,284.785 255.595,285.193 255.595,312.934 256,312.525      274.177,330.856 256,349.217 255.595,348.809 255.595,376.547 256,376.955    "/>
		</g>
		<g>
			<path style="fill:#FF7045;" d="M347.347,284.785l-45.673,46.085l45.673,46.085l45.673-46.085L347.347,284.785z M329.17,330.886     l18.177-18.36l18.177,18.332l-18.177,18.361L329.17,330.886z"/>
		</g>
	</g>
	<g>
		<path style="fill:#FF8257;" d="M124.719,272.204h262.563c-0.908-8.222-1.815-16.445-2.723-24.667H127.442    C126.534,255.759,125.626,263.981,124.719,272.204z"/>
	</g>
	<g>
		<path style="fill:#FF7045;" d="M384.558,247.537H255.595v24.667h131.686C386.374,263.981,385.466,255.759,384.558,247.537z"/>
	</g>
	<g>
		<path style="fill:#FF8257;" d="M129.392,229.87h253.216c-0.908-8.222-1.816-16.444-2.723-24.667H132.115    C131.208,213.426,130.3,221.648,129.392,229.87z"/>
	</g>
	<g>
		<path style="fill:#FF7045;" d="M379.885,205.204H255.595v24.667h127.013C381.7,221.648,380.792,213.426,379.885,205.204z"/>
	</g>
	<g>
		<path style="fill:#FF8257;" d="M108.402,420h295.197c-0.908-8.222-1.816-16.444-2.723-24.667h-289.75    C110.217,403.556,109.309,411.778,108.402,420z"/>
	</g>
	<g>
		<path style="fill:#FF7045;" d="M400.875,395.333h-145.28V420h148.003C402.691,411.778,401.783,403.556,400.875,395.333z"/>
	</g>
</g>















</svg>
