<svg xmlns="http://www.w3.org/2000/svg" height="512pt" version="1.1" viewBox="0 -44 512.00029 512" width="512pt">
<g id="surface1">
<path d="M 229.605469 238.167969 C 229.582031 238.167969 229.558594 238.167969 229.535156 238.167969 L 163.878906 238.359375 L 166.582031 143.054688 C 167.109375 124.40625 152.335938 108.835938 133.621094 108.464844 L 102.679688 107.851562 C 84.011719 107.484375 68.5625 122.421875 68.375 141.15625 L 67.25 255.246094 C 67.164062 264.195312 70.644531 272.8125 76.921875 279.1875 C 83.203125 285.5625 91.765625 286.171875 100.714844 286.21875 L 162.511719 286.574219 L 194.097656 286.484375 L 152.46875 391.6875 C 147.566406 404.070312 153.632812 418.074219 166.011719 422.976562 C 178.386719 427.875 192.398438 421.808594 197.296875 409.429688 L 252.019531 271.144531 C 258.273438 255.339844 246.613281 238.167969 229.605469 238.167969 Z M 229.605469 238.167969 " style=" stroke:none;fill-rule:nonzero;fill:rgb(25.490196%,29.411765%,50.980392%);fill-opacity:1;" />
<path d="M 160.40625 372.246094 L 48.085938 372.246094 C 42.253906 372.246094 37.527344 367.28125 37.527344 361.160156 C 37.527344 355.039062 42.253906 350.074219 48.085938 350.074219 L 160.40625 350.074219 C 166.238281 350.074219 170.964844 355.039062 170.964844 361.160156 C 170.964844 367.28125 166.234375 372.246094 160.40625 372.246094 Z M 160.40625 372.246094 " style=" stroke:none;fill-rule:nonzero;fill:rgb(72.941176%,40.392157%,27.45098%);fill-opacity:1;" />
<path d="M 163.652344 416.273438 L 138.585938 312.128906 C 137.101562 306.191406 140.714844 300.171875 146.652344 298.683594 C 152.59375 297.199219 158.609375 300.808594 160.097656 306.75 L 185.164062 410.894531 C 186.648438 416.835938 183.039062 422.855469 177.097656 424.339844 C 171.183594 425.816406 165.144531 422.242188 163.652344 416.273438 Z M 163.652344 416.273438 " style=" stroke:none;fill-rule:nonzero;fill:rgb(47.058824%,23.529412%,15.686275%);fill-opacity:1;" />
<path d="M 48.613281 424.671875 C 42.492188 424.671875 37.527344 419.710938 37.527344 413.585938 L 37.527344 302.769531 C 37.527344 296.648438 42.492188 291.683594 48.613281 291.683594 C 54.738281 291.683594 59.699219 296.648438 59.699219 302.769531 L 59.699219 413.585938 C 59.699219 419.710938 54.738281 424.671875 48.613281 424.671875 Z M 48.613281 424.671875 " style=" stroke:none;fill-rule:nonzero;fill:rgb(47.058824%,23.529412%,15.686275%);fill-opacity:1;" />
<path d="M 326.492188 176.015625 C 321.898438 176.015625 318.175781 172.296875 318.175781 167.703125 L 318.175781 115.363281 C 318.175781 110.773438 321.898438 107.050781 326.492188 107.050781 C 331.082031 107.050781 334.804688 110.773438 334.804688 115.363281 L 334.804688 167.703125 C 334.800781 172.296875 331.082031 176.015625 326.492188 176.015625 Z M 326.492188 176.015625 " style=" stroke:none;fill-rule:nonzero;fill:rgb(23.529412%,35.294118%,45.098039%);fill-opacity:1;" />
<path d="M 467.664062 424.671875 C 458.480469 424.671875 451.039062 417.226562 451.039062 408.046875 L 451.039062 221.101562 C 451.039062 211.921875 458.480469 204.476562 467.664062 204.476562 C 476.84375 204.476562 484.289062 211.921875 484.289062 221.101562 L 484.289062 408.046875 C 484.289062 417.230469 476.84375 424.671875 467.664062 424.671875 Z M 467.664062 424.671875 " style=" stroke:none;fill-rule:nonzero;fill:rgb(72.941176%,40.392157%,27.45098%);fill-opacity:1;" />
<path d="M 440.628906 55.878906 C 440.628906 46.113281 432.714844 38.199219 422.949219 38.199219 L 351.957031 38.199219 L 351.957031 208.699219 L 440.628906 208.699219 Z M 440.628906 55.878906 " style=" stroke:none;fill-rule:nonzero;fill:rgb(27.45098%,45.098039%,54.901961%);fill-opacity:1;" />
<path d="M 72.464844 273.574219 C 69.023438 268.136719 67.1875 261.78125 67.25 255.246094 L 68.375 141.15625 C 68.558594 122.484375 83.949219 107.484375 102.679688 107.855469 L 133.621094 108.464844 C 152.269531 108.835938 167.113281 124.34375 166.582031 143.054688 L 163.878906 238.359375 Z M 72.464844 273.574219 " style=" stroke:none;fill-rule:nonzero;fill:rgb(39.215686%,68.627451%,100%);fill-opacity:1;" />
<path d="M 177.222656 44.339844 C 177.222656 68.828125 157.371094 88.679688 132.882812 88.679688 C 108.394531 88.679688 88.542969 68.828125 88.542969 44.339844 C 88.542969 19.851562 108.394531 0 132.882812 0 C 157.371094 0 177.222656 19.851562 177.222656 44.339844 Z M 177.222656 44.339844 " style=" stroke:none;fill-rule:nonzero;fill:rgb(100%,71.372549%,61.960784%);fill-opacity:1;" />
<path d="M 164.34375 317.019531 L 47.941406 317.019531 C 39.992188 317.019531 33.15625 311.394531 31.625 303.597656 L 0.316406 144.324219 C -1.457031 135.3125 4.414062 126.574219 13.425781 124.800781 C 22.433594 123.03125 31.175781 128.898438 32.949219 137.910156 L 61.617188 283.757812 L 164.339844 283.757812 C 173.523438 283.757812 180.96875 291.203125 180.96875 300.386719 C 180.96875 309.570312 173.527344 317.019531 164.34375 317.019531 Z M 164.34375 317.019531 " style=" stroke:none;fill-rule:nonzero;fill:rgb(72.941176%,40.392157%,27.45098%);fill-opacity:1;" />
<path d="M 495.371094 233.839844 L 229.605469 233.839844 C 220.421875 233.839844 212.976562 226.394531 212.976562 217.210938 C 212.976562 208.027344 220.421875 200.582031 229.605469 200.582031 L 495.371094 200.582031 C 504.554688 200.582031 512 208.027344 512 217.210938 C 512 226.394531 504.554688 233.839844 495.371094 233.839844 Z M 495.371094 233.839844 " style=" stroke:none;fill-rule:nonzero;fill:rgb(88.627451%,54.901961%,44.313725%);fill-opacity:1;" />
<path d="M 387.425781 55.878906 C 387.425781 46.113281 379.511719 38.199219 369.75 38.199219 L 316.433594 38.199219 C 306.671875 38.199219 298.757812 46.113281 298.757812 55.878906 L 298.757812 122.304688 C 298.757812 132.066406 306.671875 139.980469 316.433594 139.980469 L 369.75 139.980469 C 379.511719 139.980469 387.425781 132.066406 387.425781 122.304688 Z M 387.425781 55.878906 " style=" stroke:none;fill-rule:nonzero;fill:rgb(42.352941%,60.784314%,66.666667%);fill-opacity:1;" />
<path d="M 351.960938 212.40625 C 372.34375 203.410156 384.039062 188.394531 351.960938 176.015625 C 319.878906 163.636719 276.285156 186.179688 249.683594 176.015625 C 223.082031 165.855469 213.960938 290.839844 229.605469 348.789062 C 245.25 406.738281 280.71875 353.613281 284.414062 330.671875 C 288.105469 307.726562 284.175781 242.320312 351.960938 212.40625 Z M 351.960938 212.40625 " style=" stroke:none;fill-rule:nonzero;fill:rgb(100%,64.705882%,3.921569%);fill-opacity:1;" />
<path d="M 152.546875 215.179688 L 98.671875 156.9375 C 91.136719 148.792969 91.632812 136.082031 99.777344 128.546875 C 107.921875 121.015625 120.628906 121.511719 128.164062 129.652344 L 172.949219 178.066406 L 238.191406 154.148438 C 248.605469 150.332031 260.148438 155.675781 263.96875 166.09375 C 267.789062 176.511719 262.441406 188.050781 252.023438 191.871094 L 174.210938 220.398438 C 166.582031 223.195312 158.042969 221.121094 152.546875 215.179688 Z M 152.546875 215.179688 " style=" stroke:none;fill-rule:nonzero;fill:rgb(100%,71.372549%,61.960784%);fill-opacity:1;" />
<path d="M 151.707031 155.101562 L 128.164062 129.652344 C 120.632812 121.507812 107.921875 121.015625 99.777344 128.546875 C 91.632812 136.082031 91.136719 148.792969 98.671875 156.9375 L 124.304688 184.648438 Z M 151.707031 155.101562 " style=" stroke:none;fill-rule:nonzero;fill:rgb(27.45098%,60%,94.901961%);fill-opacity:1;" />
</g>
</svg>