<svg height="512" viewBox="0 0 512 512" width="512" xmlns="http://www.w3.org/2000/svg"><g id="Layer_14" data-name="Layer 14"><path d="m160.75 114.95a58.3 58.3 0 0 1 34.75-53.35l22.33-9.86-17.92-7.01-31.41 13.87a58.309 58.309 0 0 0 -34.75 53.35v24.61l26.64 12.263z" fill="#ffffff"/><path d="m203.2 159.1-12.113-5.575c.287 4.216.5 6.464.623 9.715a134.739 134.739 0 0 1 -.54 19.02c-5.68 54.41-11.5 61.12-22.62 138.73-5.68 39.62-12.72 131.94-4.55 175.09a6.067 6.067 0 0 0 5.97 4.92h21.755a5.969 5.969 0 0 1 -.725-1.92c-8.17-43.15-1.13-135.47 4.55-175.09 11.12-77.61 16.94-84.32 22.62-138.73l.02-.185a25.8 25.8 0 0 0 -14.99-25.975z" fill="#ffffff"/><path d="m243.677 187.45a5.031 5.031 0 0 0 .668-.045c21.9-2.925 37.975-25.622 38.649-26.587a5 5 0 1 0 -8.2-5.724c-.139.2-14.184 20.051-31.773 22.4a5 5 0 0 0 .656 9.957z" fill="#ffffff"/><path d="m372.951 77.329a62.859 62.859 0 0 0 -27.573-23.258l-30.607-13.32-3.991 9.17 30.608 13.32a53.03 53.03 0 0 1 31.866 48.622v21.5l-47.46 21.886c2.374-28.516 10.879-55.095 10.992-55.442a5 5 0 0 0 -9.513-3.085c-.63 1.943-15.4 48.037-11.419 86.067 3.007 28.77 6.038 44.239 9.873 63.825 3.52 17.969 7.509 38.335 12.778 75.093 5.448 38 12.641 130.9 4.583 173.447a1.066 1.066 0 0 1 -1.061.851h-17.707l-11.937-83.427a5 5 0 0 0 -4.949-4.292 5 5 0 0 0 -4.949 4.3l-11.875 83.414h-120.637a1.066 1.066 0 0 1 -1.061-.851c-8.058-42.549-.865-135.449 4.588-173.449 5.269-36.758 9.258-57.124 12.778-75.093 3.835-19.586 6.866-35.055 9.873-63.825 3.977-38.03-10.789-84.124-11.419-86.067a5 5 0 0 0 -9.512 3.086c.113.347 8.616 26.884 10.992 55.4l-47.462-21.848v-21.4a53.321 53.321 0 0 1 31.774-48.774l31.402-13.879-4.041-9.147-31.407 13.877a63.326 63.326 0 0 0 -37.733 57.921v24.608a5 5 0 0 0 2.91 4.542l55.138 25.381a125.711 125.711 0 0 1 -.593 15.263c-2.961 28.325-5.953 43.6-9.741 62.943-3.367 17.19-7.558 38.584-12.863 75.594-5.705 39.8-12.886 132.5-4.509 176.729a11.073 11.073 0 0 0 10.886 8.989h124.976a5 5 0 0 0 4.95-4.3l7.548-53.03 7.588 53.034a5 5 0 0 0 4.949 4.296h22.043a11.073 11.073 0 0 0 10.886-8.989c8.377-44.23 1.2-136.928-4.509-176.729-5.305-37.01-9.5-58.4-12.863-75.594-3.788-19.341-6.78-34.618-9.741-62.943a125.385 125.385 0 0 1 -.591-15.22l55.139-25.425a5 5 0 0 0 2.906-4.54v-24.7a62.866 62.866 0 0 0 -10.303-34.531z" fill="#ffffff"/><path d="m310.308 8.835a16.839 16.839 0 0 0 -17.383-.472c-9.087 5.14-23.7 15.2-33.282 30.817a43.537 43.537 0 0 0 -12.727-17.2c-11.029-9.255-25.21-13.321-34.916-15.573a15.634 15.634 0 0 0 -19.184 15.228v18.279a11.542 11.542 0 0 0 7.355 10.786l49.8 19.008c-6.088 11.216-24.071 40.192-56.971 60.904l1.725 10.668a166.855 166.855 0 0 0 16.543-11.222l.167.2a5 5 0 1 0 7.665-6.422l-.085-.1c2.427-2.1 4.753-4.219 6.954-6.34l2.148 2.27a5 5 0 0 0 7.263-6.873l-2.409-2.545q3-3.237 5.677-6.4l2.06 1.526a5 5 0 1 0 5.95-8.037l-1.767-1.309c1.721-2.281 3.3-4.484 4.741-6.581l2.581 1.661a5 5 0 0 0 5.41-8.411l-2.57-1.653c2.654-4.4 4.455-7.853 5.468-9.91.088-.026.176-.054.264-.083l49.339-16.78a11.549 11.549 0 0 0 7.988-11.011v-20.192a16.8 16.8 0 0 0 -7.804-14.233zm-57.56 51.23-48.948-18.683a1.568 1.568 0 0 1 -.99-1.468v-18.279a5.637 5.637 0 0 1 5.629-5.635 5.81 5.81 0 0 1 1.3.149c30.743 7.133 44.567 21.165 43.009 43.916zm55.364-16.81a1.6 1.6 0 0 1 -1.146 1.523l-44.189 15.029q.111-2.1.072-4.121c6.83-20.222 24.8-32.853 35-38.618a6.888 6.888 0 0 1 10.264 6z" fill="#1ae5be"/></g></svg>