<svg width="1800" height="680" viewBox="0 0 1800 680" fill="none" xmlns="http://www.w3.org/2000/svg">
<path d="M74.5 529L59 499L215 269.5H74.5V175H362V234L231.5 434.5H247L363 424.5V529H74.5ZM459.602 278.5L385.602 214.5L459.602 151L533.602 214.5L459.602 278.5ZM404.102 529V363.5L393.602 323.5L403.602 293H514.102V529H404.102ZM668.875 650.5C663.542 650.5 656.542 650.333 647.875 650C639.542 650 631.375 649.667 623.375 649C615.375 648.667 609.042 648.333 604.375 648L543.375 618.5L568.375 538.5L656.875 564C674.875 564 687.042 560.333 693.375 553C700.042 546 703.375 536.167 703.375 523.5V514L698.375 511.5C693.708 516.167 687.208 521 678.875 526C670.875 530.667 657.375 533 638.375 533C622.708 533 607.542 529.167 592.875 521.5C578.208 513.5 566.208 500.833 556.875 483.5C547.875 466.167 543.375 443.667 543.375 416C543.375 385 548.042 360.167 557.375 341.5C566.708 322.5 578.542 308.667 592.875 300C607.542 291.333 622.708 287 638.375 287C652.042 287 663.708 289.5 673.375 294.5C683.042 299.5 689.708 304.333 693.375 309V292.5H803.875L808.875 322.5L803.375 352.5L803.875 528.5C803.875 557.167 798.208 580.5 786.875 598.5C775.875 616.5 760.208 629.667 739.875 638C719.875 646.333 696.208 650.5 668.875 650.5ZM685.875 451C687.208 451 688.375 451 689.375 451C690.708 451 692.042 450.833 693.375 450.5V377C692.708 376 691.208 375 688.875 374C686.875 373 684.042 372.5 680.375 372.5C673.708 372.5 667.542 375 661.875 380C656.208 385 653.375 395.167 653.375 410.5C653.375 424.833 656.708 435.167 663.375 441.5C670.042 447.5 677.542 450.667 685.875 451Z" fill="#F72585"/>
<path d="M854.285 529L838.785 499L994.785 269.5H854.285V175H1141.79V234L1011.29 434.5H1026.79L1142.79 424.5V529H854.285ZM1247.89 534C1225.55 534 1207.39 528.833 1193.39 518.5C1179.72 507.833 1172.89 489.333 1172.89 463C1172.89 438.667 1180.89 420.333 1196.89 408C1213.22 395.333 1235.22 389 1262.89 389C1277.89 389 1289.89 390.5 1298.89 393.5C1307.89 396.167 1314.72 398.833 1319.39 401.5L1322.89 399C1322.89 388.667 1321.05 381 1317.39 376C1313.72 370.667 1304.89 368 1290.89 368C1278.55 368 1265.89 369.333 1252.89 372C1240.22 374.333 1228.22 377.5 1216.89 381.5C1205.55 385.167 1195.89 389.167 1187.89 393.5V303.5C1193.22 301.833 1201.72 299.833 1213.39 297.5C1225.05 295.167 1239.05 293.167 1255.39 291.5C1271.72 289.5 1289.22 288.5 1307.89 288.5C1339.22 288.5 1364.05 292.333 1382.39 300C1400.72 307.333 1413.72 318.167 1421.39 332.5C1429.39 346.5 1433.39 363.333 1433.39 383V449.5L1443.39 500L1433.39 529.5H1327.89V505L1322.89 502.5C1317.55 510.167 1308.39 517.333 1295.39 524C1282.72 530.667 1266.89 534 1247.89 534ZM1304.39 468.5C1309.39 468.5 1313.55 467.667 1316.89 466C1320.22 464.333 1322.22 463.333 1322.89 463V452C1322.89 447 1321.39 442.667 1318.39 439C1315.39 435.333 1310.89 433.5 1304.89 433.5C1299.55 433.5 1294.55 435 1289.89 438C1285.22 440.667 1282.89 445.5 1282.89 452.5C1282.89 463.167 1290.05 468.5 1304.39 468.5ZM1590.75 650.5C1585.42 650.5 1578.42 650.333 1569.75 650C1561.42 650 1553.25 649.667 1545.25 649C1537.25 648.667 1530.92 648.333 1526.25 648L1465.25 618.5L1490.25 538.5L1578.75 564C1596.75 564 1608.92 560.333 1615.25 553C1621.92 546 1625.25 536.167 1625.25 523.5V514L1620.25 511.5C1615.58 516.167 1609.08 521 1600.75 526C1592.75 530.667 1579.25 533 1560.25 533C1544.58 533 1529.42 529.167 1514.75 521.5C1500.08 513.5 1488.08 500.833 1478.75 483.5C1469.75 466.167 1465.25 443.667 1465.25 416C1465.25 385 1469.92 360.167 1479.25 341.5C1488.58 322.5 1500.42 308.667 1514.75 300C1529.42 291.333 1544.58 287 1560.25 287C1573.92 287 1585.58 289.5 1595.25 294.5C1604.92 299.5 1611.58 304.333 1615.25 309V292.5H1725.75L1730.75 322.5L1725.25 352.5L1725.75 528.5C1725.75 557.167 1720.08 580.5 1708.75 598.5C1697.75 616.5 1682.08 629.667 1661.75 638C1641.75 646.333 1618.08 650.5 1590.75 650.5ZM1607.75 451C1609.08 451 1610.25 451 1611.25 451C1612.58 451 1613.92 450.833 1615.25 450.5V377C1614.58 376 1613.08 375 1610.75 374C1608.75 373 1605.92 372.5 1602.25 372.5C1595.58 372.5 1589.42 375 1583.75 380C1578.08 385 1575.25 395.167 1575.25 410.5C1575.25 424.833 1578.58 435.167 1585.25 441.5C1591.92 447.5 1599.42 450.667 1607.75 451Z" fill="#5A189A"/>
<path d="M137 175C137 177.626 136.483 180.227 135.478 182.654C134.472 185.08 132.999 187.285 131.142 189.142C129.285 190.999 127.08 192.472 124.654 193.478C122.227 194.483 119.626 195 117 195C114.374 195 111.773 194.483 109.346 193.478C106.92 192.472 104.715 190.999 102.858 189.142C101.001 187.285 99.5275 185.08 98.5224 182.654C97.5173 180.227 97 177.626 97 175L117 175H137Z" fill="white"/>
<path d="M227 175C227 180.304 224.893 185.391 221.142 189.142C217.391 192.893 212.304 195 207 195C201.696 195 196.609 192.893 192.858 189.142C189.107 185.391 187 180.304 187 175L207 175H227Z" fill="white"/>
<path d="M317 175C317 177.626 316.483 180.227 315.478 182.654C314.472 185.08 312.999 187.285 311.142 189.142C309.285 190.999 307.08 192.472 304.654 193.478C302.227 194.483 299.626 195 297 195C294.374 195 291.773 194.483 289.346 193.478C286.92 192.472 284.715 190.999 282.858 189.142C281.001 187.285 279.528 185.08 278.522 182.654C277.517 180.227 277 177.626 277 175L297 175H317Z" fill="white"/>
<path d="M167 529C167 526.374 166.483 523.773 165.478 521.346C164.472 518.92 162.999 516.715 161.142 514.858C159.285 513.001 157.08 511.528 154.654 510.522C152.227 509.517 149.626 509 147 509C144.374 509 141.773 509.517 139.346 510.522C136.92 511.528 134.715 513.001 132.858 514.858C131.001 516.715 129.528 518.92 128.522 521.346C127.517 523.773 127 526.374 127 529L147 529H167Z" fill="white"/>
<path d="M257 529C257 523.696 254.893 518.609 251.142 514.858C247.391 511.107 242.304 509 237 509C231.696 509 226.609 511.107 222.858 514.858C219.107 518.609 217 523.696 217 529L237 529H257Z" fill="white"/>
<path d="M347 529C347 523.696 344.893 518.609 341.142 514.858C337.391 511.107 332.304 509 327 509C321.696 509 316.609 511.107 312.858 514.858C309.107 518.609 307 523.696 307 529L327 529H347Z" fill="white"/>
<path d="M917 175C917 180.304 914.893 185.391 911.142 189.142C907.391 192.893 902.304 195 897 195C891.696 195 886.609 192.893 882.858 189.142C879.107 185.391 877 180.304 877 175L897 175H917Z" fill="white"/>
<path d="M1007 175C1007 177.626 1006.48 180.227 1005.48 182.654C1004.47 185.08 1003 187.285 1001.14 189.142C999.285 190.999 997.08 192.472 994.654 193.478C992.227 194.483 989.626 195 987 195C984.374 195 981.773 194.483 979.346 193.478C976.92 192.472 974.715 190.999 972.858 189.142C971.001 187.285 969.528 185.08 968.522 182.654C967.517 180.227 967 177.626 967 175L987 175H1007Z" fill="white"/>
<path d="M1097 175C1097 180.304 1094.89 185.391 1091.14 189.142C1087.39 192.893 1082.3 195 1077 195C1071.7 195 1066.61 192.893 1062.86 189.142C1059.11 185.391 1057 180.304 1057 175L1077 175H1097Z" fill="white"/>
<path d="M947 529C947 523.696 944.893 518.609 941.142 514.858C937.391 511.107 932.304 509 927 509C921.696 509 916.609 511.107 912.858 514.858C909.107 518.609 907 523.696 907 529L927 529H947Z" fill="white"/>
<path d="M1037 529C1037 526.374 1036.48 523.773 1035.48 521.346C1034.47 518.92 1033 516.715 1031.14 514.858C1029.28 513.001 1027.08 511.528 1024.65 510.522C1022.23 509.517 1019.63 509 1017 509C1014.37 509 1011.77 509.517 1009.35 510.522C1006.92 511.528 1004.72 513.001 1002.86 514.858C1001 516.715 999.528 518.92 998.522 521.346C997.517 523.773 997 526.374 997 529L1017 529H1037Z" fill="white"/>
<path d="M1127 529C1127 523.696 1124.89 518.609 1121.14 514.858C1117.39 511.107 1112.3 509 1107 509C1101.7 509 1096.61 511.107 1092.86 514.858C1089.11 518.609 1087 523.696 1087 529L1107 529H1127Z" fill="white"/>
<rect x="1006" y="424" width="137" height="50" fill="#5A189A"/>
<line x1="87" y1="213.5" x2="87" y2="269.5" stroke="white" stroke-width="4"/>
<line x1="207" y1="213.5" x2="207" y2="269.5" stroke="white" stroke-width="4"/>
<line x1="187" y1="239.5" x2="187" y2="269.5" stroke="white" stroke-width="4"/>
<line x1="167" y1="239.5" x2="167" y2="269.5" stroke="white" stroke-width="4"/>
<line x1="127" y1="239.5" x2="127" y2="269.5" stroke="white" stroke-width="4"/>
<line x1="147" y1="224.5" x2="147" y2="269.5" stroke="white" stroke-width="4"/>
<line x1="107" y1="239.5" x2="107" y2="269.5" stroke="white" stroke-width="4"/>
<line x1="866" y1="213.5" x2="866" y2="269.5" stroke="white" stroke-width="4"/>
<line x1="986" y1="213.5" x2="986" y2="269.5" stroke="white" stroke-width="4"/>
<line x1="966" y1="239.5" x2="966" y2="269.5" stroke="white" stroke-width="4"/>
<line x1="946" y1="239.5" x2="946" y2="269.5" stroke="white" stroke-width="4"/>
<line x1="906" y1="239.5" x2="906" y2="269.5" stroke="white" stroke-width="4"/>
<line x1="926" y1="224.5" x2="926" y2="269.5" stroke="white" stroke-width="4"/>
<line x1="886" y1="239.5" x2="886" y2="269.5" stroke="white" stroke-width="4"/>
<line x1="1134" y1="481.5" x2="1134" y2="425.5" stroke="white" stroke-width="4"/>
<line x1="1026" y1="481.5" x2="1026" y2="425.5" stroke="white" stroke-width="4"/>
<line x1="1044" y1="455.5" x2="1044" y2="425.5" stroke="white" stroke-width="4"/>
<line x1="1062" y1="455.5" x2="1062" y2="425.5" stroke="white" stroke-width="4"/>
<line x1="1098" y1="455.5" x2="1098" y2="425.5" stroke="white" stroke-width="4"/>
<line x1="1080" y1="470.5" x2="1080" y2="425.5" stroke="white" stroke-width="4"/>
<line x1="1116" y1="455.5" x2="1116" y2="425.5" stroke="white" stroke-width="4"/>
<rect x="226" y="424" width="137" height="50" fill="#F72585"/>
<line x1="354" y1="481.5" x2="354" y2="425.5" stroke="white" stroke-width="4"/>
<line x1="246" y1="481.5" x2="246" y2="425.5" stroke="white" stroke-width="4"/>
<line x1="264" y1="455.5" x2="264" y2="425.5" stroke="white" stroke-width="4"/>
<line x1="282" y1="455.5" x2="282" y2="425.5" stroke="white" stroke-width="4"/>
<line x1="318" y1="455.5" x2="318" y2="425.5" stroke="white" stroke-width="4"/>
<line x1="300" y1="470.5" x2="300" y2="425.5" stroke="white" stroke-width="4"/>
<line x1="336" y1="455.5" x2="336" y2="425.5" stroke="white" stroke-width="4"/>
</svg>
