<svg width="1800" height="680" viewBox="0 0 1800 680" fill="none" xmlns="http://www.w3.org/2000/svg">
<g clip-path="url(#clip0)">
<g filter="url(#filter0_d)">
<path d="M74.5 439L59 409L215 179.5H74.5V85H362V144L231.5 344.5H247L363 334.5V439H74.5ZM459.602 188.5L385.602 124.5L459.602 61L533.602 124.5L459.602 188.5ZM404.102 439V273.5L393.602 233.5L403.602 203H514.102V439H404.102ZM668.875 560.5C663.542 560.5 656.542 560.333 647.875 560C639.542 560 631.375 559.667 623.375 559C615.375 558.667 609.042 558.333 604.375 558L543.375 528.5L568.375 448.5L656.875 474C674.875 474 687.042 470.333 693.375 463C700.042 456 703.375 446.167 703.375 433.5V424L698.375 421.5C693.708 426.167 687.208 431 678.875 436C670.875 440.667 657.375 443 638.375 443C622.708 443 607.542 439.167 592.875 431.5C578.208 423.5 566.208 410.833 556.875 393.5C547.875 376.167 543.375 353.667 543.375 326C543.375 295 548.042 270.167 557.375 251.5C566.708 232.5 578.542 218.667 592.875 210C607.542 201.333 622.708 197 638.375 197C652.042 197 663.708 199.5 673.375 204.5C683.042 209.5 689.708 214.333 693.375 219V202.5H803.875L808.875 232.5L803.375 262.5L803.875 438.5C803.875 467.167 798.208 490.5 786.875 508.5C775.875 526.5 760.208 539.667 739.875 548C719.875 556.333 696.208 560.5 668.875 560.5ZM685.875 361C687.208 361 688.375 361 689.375 361C690.708 361 692.042 360.833 693.375 360.5V287C692.708 286 691.208 285 688.875 284C686.875 283 684.042 282.5 680.375 282.5C673.708 282.5 667.542 285 661.875 290C656.208 295 653.375 305.167 653.375 320.5C653.375 334.833 656.708 345.167 663.375 351.5C670.042 357.5 677.542 360.667 685.875 361Z" fill="#F72585"/>
<path d="M854.285 439L838.785 409L994.785 179.5H854.285V85H1141.79V144L1011.29 344.5H1026.79L1142.79 334.5V439H854.285ZM1247.89 444C1225.55 444 1207.39 438.833 1193.39 428.5C1179.72 417.833 1172.89 399.333 1172.89 373C1172.89 348.667 1180.89 330.333 1196.89 318C1213.22 305.333 1235.22 299 1262.89 299C1277.89 299 1289.89 300.5 1298.89 303.5C1307.89 306.167 1314.72 308.833 1319.39 311.5L1322.89 309C1322.89 298.667 1321.05 291 1317.39 286C1313.72 280.667 1304.89 278 1290.89 278C1278.55 278 1265.89 279.333 1252.89 282C1240.22 284.333 1228.22 287.5 1216.89 291.5C1205.55 295.167 1195.89 299.167 1187.89 303.5V213.5C1193.22 211.833 1201.72 209.833 1213.39 207.5C1225.05 205.167 1239.05 203.167 1255.39 201.5C1271.72 199.5 1289.22 198.5 1307.89 198.5C1339.22 198.5 1364.05 202.333 1382.39 210C1400.72 217.333 1413.72 228.167 1421.39 242.5C1429.39 256.5 1433.39 273.333 1433.39 293V359.5L1443.39 410L1433.39 439.5H1327.89V415L1322.89 412.5C1317.55 420.167 1308.39 427.333 1295.39 434C1282.72 440.667 1266.89 444 1247.89 444ZM1304.39 378.5C1309.39 378.5 1313.55 377.667 1316.89 376C1320.22 374.333 1322.22 373.333 1322.89 373V362C1322.89 357 1321.39 352.667 1318.39 349C1315.39 345.333 1310.89 343.5 1304.89 343.5C1299.55 343.5 1294.55 345 1289.89 348C1285.22 350.667 1282.89 355.5 1282.89 362.5C1282.89 373.167 1290.05 378.5 1304.39 378.5ZM1590.75 560.5C1585.42 560.5 1578.42 560.333 1569.75 560C1561.42 560 1553.25 559.667 1545.25 559C1537.25 558.667 1530.92 558.333 1526.25 558L1465.25 528.5L1490.25 448.5L1578.75 474C1596.75 474 1608.92 470.333 1615.25 463C1621.92 456 1625.25 446.167 1625.25 433.5V424L1620.25 421.5C1615.58 426.167 1609.08 431 1600.75 436C1592.75 440.667 1579.25 443 1560.25 443C1544.58 443 1529.42 439.167 1514.75 431.5C1500.08 423.5 1488.08 410.833 1478.75 393.5C1469.75 376.167 1465.25 353.667 1465.25 326C1465.25 295 1469.92 270.167 1479.25 251.5C1488.58 232.5 1500.42 218.667 1514.75 210C1529.42 201.333 1544.58 197 1560.25 197C1573.92 197 1585.58 199.5 1595.25 204.5C1604.92 209.5 1611.58 214.333 1615.25 219V202.5H1725.75L1730.75 232.5L1725.25 262.5L1725.75 438.5C1725.75 467.167 1720.08 490.5 1708.75 508.5C1697.75 526.5 1682.08 539.667 1661.75 548C1641.75 556.333 1618.08 560.5 1590.75 560.5ZM1607.75 361C1609.08 361 1610.25 361 1611.25 361C1612.58 361 1613.92 360.833 1615.25 360.5V287C1614.58 286 1613.08 285 1610.75 284C1608.75 283 1605.92 282.5 1602.25 282.5C1595.58 282.5 1589.42 285 1583.75 290C1578.08 295 1575.25 305.167 1575.25 320.5C1575.25 334.833 1578.58 345.167 1585.25 351.5C1591.92 357.5 1599.42 360.667 1607.75 361Z" fill="#5A189A"/>
</g>
<path d="M137 85C137 87.6264 136.483 90.2272 135.478 92.6537C134.472 95.0802 132.999 97.285 131.142 99.1421C129.285 100.999 127.08 102.472 124.654 103.478C122.227 104.483 119.626 105 117 105C114.374 105 111.773 104.483 109.346 103.478C106.92 102.472 104.715 100.999 102.858 99.1421C101.001 97.285 99.5275 95.0802 98.5224 92.6537C97.5173 90.2272 97 87.6264 97 85L117 85H137Z" fill="white"/>
<path d="M227 85C227 90.3043 224.893 95.3914 221.142 99.1421C217.391 102.893 212.304 105 207 105C201.696 105 196.609 102.893 192.858 99.1421C189.107 95.3914 187 90.3043 187 85L207 85H227Z" fill="white"/>
<path d="M317 85C317 87.6264 316.483 90.2272 315.478 92.6537C314.472 95.0802 312.999 97.285 311.142 99.1421C309.285 100.999 307.08 102.472 304.654 103.478C302.227 104.483 299.626 105 297 105C294.374 105 291.773 104.483 289.346 103.478C286.92 102.472 284.715 100.999 282.858 99.1421C281.001 97.285 279.528 95.0802 278.522 92.6537C277.517 90.2272 277 87.6264 277 85L297 85H317Z" fill="white"/>
<path d="M167 439C167 436.374 166.483 433.773 165.478 431.346C164.472 428.92 162.999 426.715 161.142 424.858C159.285 423.001 157.08 421.528 154.654 420.522C152.227 419.517 149.626 419 147 419C144.374 419 141.773 419.517 139.346 420.522C136.92 421.528 134.715 423.001 132.858 424.858C131.001 426.715 129.528 428.92 128.522 431.346C127.517 433.773 127 436.374 127 439L147 439H167Z" fill="white"/>
<path d="M257 439C257 433.696 254.893 428.609 251.142 424.858C247.391 421.107 242.304 419 237 419C231.696 419 226.609 421.107 222.858 424.858C219.107 428.609 217 433.696 217 439L237 439H257Z" fill="white"/>
<path d="M347 439C347 433.696 344.893 428.609 341.142 424.858C337.391 421.107 332.304 419 327 419C321.696 419 316.609 421.107 312.858 424.858C309.107 428.609 307 433.696 307 439L327 439H347Z" fill="white"/>
<path d="M917 85C917 90.3043 914.893 95.3914 911.142 99.1421C907.391 102.893 902.304 105 897 105C891.696 105 886.609 102.893 882.858 99.1421C879.107 95.3914 877 90.3043 877 85L897 85H917Z" fill="white"/>
<path d="M1007 85C1007 87.6264 1006.48 90.2272 1005.48 92.6537C1004.47 95.0802 1003 97.285 1001.14 99.1421C999.285 100.999 997.08 102.472 994.654 103.478C992.227 104.483 989.626 105 987 105C984.374 105 981.773 104.483 979.346 103.478C976.92 102.472 974.715 100.999 972.858 99.1421C971.001 97.285 969.528 95.0802 968.522 92.6537C967.517 90.2272 967 87.6264 967 85L987 85H1007Z" fill="white"/>
<path d="M1097 85C1097 90.3043 1094.89 95.3914 1091.14 99.1421C1087.39 102.893 1082.3 105 1077 105C1071.7 105 1066.61 102.893 1062.86 99.1421C1059.11 95.3914 1057 90.3043 1057 85L1077 85H1097Z" fill="white"/>
<path d="M947 439C947 433.696 944.893 428.609 941.142 424.858C937.391 421.107 932.304 419 927 419C921.696 419 916.609 421.107 912.858 424.858C909.107 428.609 907 433.696 907 439L927 439H947Z" fill="white"/>
<path d="M1037 439C1037 436.374 1036.48 433.773 1035.48 431.346C1034.47 428.92 1033 426.715 1031.14 424.858C1029.28 423.001 1027.08 421.528 1024.65 420.522C1022.23 419.517 1019.63 419 1017 419C1014.37 419 1011.77 419.517 1009.35 420.522C1006.92 421.528 1004.72 423.001 1002.86 424.858C1001 426.715 999.528 428.92 998.522 431.346C997.517 433.773 997 436.374 997 439L1017 439H1037Z" fill="white"/>
<path d="M1127 439C1127 433.696 1124.89 428.609 1121.14 424.858C1117.39 421.107 1112.3 419 1107 419C1101.7 419 1096.61 421.107 1092.86 424.858C1089.11 428.609 1087 433.696 1087 439L1107 439H1127Z" fill="white"/>
<rect x="1006" y="334" width="137" height="50" fill="#5A189A"/>
<line x1="87" y1="123.5" x2="87" y2="179.5" stroke="white" stroke-width="4"/>
<line x1="207" y1="123.5" x2="207" y2="179.5" stroke="white" stroke-width="4"/>
<line x1="187" y1="149.5" x2="187" y2="179.5" stroke="white" stroke-width="4"/>
<line x1="167" y1="149.5" x2="167" y2="179.5" stroke="white" stroke-width="4"/>
<line x1="127" y1="149.5" x2="127" y2="179.5" stroke="white" stroke-width="4"/>
<line x1="147" y1="134.5" x2="147" y2="179.5" stroke="white" stroke-width="4"/>
<line x1="107" y1="149.5" x2="107" y2="179.5" stroke="white" stroke-width="4"/>
<line x1="866" y1="123.5" x2="866" y2="179.5" stroke="white" stroke-width="4"/>
<line x1="986" y1="123.5" x2="986" y2="179.5" stroke="white" stroke-width="4"/>
<line x1="966" y1="149.5" x2="966" y2="179.5" stroke="white" stroke-width="4"/>
<line x1="946" y1="149.5" x2="946" y2="179.5" stroke="white" stroke-width="4"/>
<line x1="906" y1="149.5" x2="906" y2="179.5" stroke="white" stroke-width="4"/>
<line x1="926" y1="134.5" x2="926" y2="179.5" stroke="white" stroke-width="4"/>
<line x1="886" y1="149.5" x2="886" y2="179.5" stroke="white" stroke-width="4"/>
<line x1="1134" y1="391.5" x2="1134" y2="335.5" stroke="white" stroke-width="4"/>
<line x1="1026" y1="391.5" x2="1026" y2="335.5" stroke="white" stroke-width="4"/>
<line x1="1044" y1="365.5" x2="1044" y2="335.5" stroke="white" stroke-width="4"/>
<line x1="1062" y1="365.5" x2="1062" y2="335.5" stroke="white" stroke-width="4"/>
<line x1="1098" y1="365.5" x2="1098" y2="335.5" stroke="white" stroke-width="4"/>
<line x1="1080" y1="380.5" x2="1080" y2="335.5" stroke="white" stroke-width="4"/>
<line x1="1116" y1="365.5" x2="1116" y2="335.5" stroke="white" stroke-width="4"/>
<rect x="226" y="334" width="137" height="50" fill="#F72585"/>
<line x1="354" y1="391.5" x2="354" y2="335.5" stroke="white" stroke-width="4"/>
<line x1="246" y1="391.5" x2="246" y2="335.5" stroke="white" stroke-width="4"/>
<line x1="264" y1="365.5" x2="264" y2="335.5" stroke="white" stroke-width="4"/>
<line x1="282" y1="365.5" x2="282" y2="335.5" stroke="white" stroke-width="4"/>
<line x1="318" y1="365.5" x2="318" y2="335.5" stroke="white" stroke-width="4"/>
<line x1="300" y1="380.5" x2="300" y2="335.5" stroke="white" stroke-width="4"/>
<line x1="336" y1="365.5" x2="336" y2="335.5" stroke="white" stroke-width="4"/>
<g filter="url(#filter1_d)">
<path d="M978 632V516L934 518V490.4H1051V518L1006 516V600L1008.2 620L1006 632H978ZM1077.94 634C1069 634 1061.4 631.733 1055.14 627.2C1049 622.533 1045.94 615.333 1045.94 605.6C1045.94 595.333 1049.2 587.533 1055.74 582.2C1062.27 576.733 1071 574 1081.94 574C1089.94 574 1096 574.667 1100.14 576C1104.4 577.333 1107.2 578.333 1108.54 579L1109.94 577.8C1109.94 573.8 1109.6 570.267 1108.94 567.2C1108.27 564.133 1106.74 561.8 1104.34 560.2C1101.94 558.467 1098.2 557.6 1093.14 557.6C1084.07 557.6 1075.94 558.333 1068.74 559.8C1061.67 561.267 1056.07 562.6 1051.94 563.8V541.8C1056.07 540.333 1062.34 539 1070.74 537.8C1079.14 536.467 1088.2 535.8 1097.94 535.8C1106.2 535.8 1112.94 536.933 1118.14 539.2C1123.47 541.333 1127.54 544.267 1130.34 548C1133.27 551.733 1135.27 555.867 1136.34 560.4C1137.54 564.8 1138.14 569.2 1138.14 573.6V600.2L1142.14 620.4L1138.14 632.2H1111.94V622.4L1109.94 621.4C1108.87 622.733 1107 624.4 1104.34 626.4C1101.8 628.4 1098.34 630.2 1093.94 631.8C1089.67 633.267 1084.34 634 1077.94 634ZM1088.94 611.8C1094.67 611.8 1099.14 611.267 1102.34 610.2C1105.67 609.133 1108.2 608.067 1109.94 607V603.2C1109.94 600.667 1108.4 598.133 1105.34 595.6C1102.4 593.067 1097.54 591.8 1090.74 591.8C1085.67 591.8 1081.94 592.8 1079.54 594.8C1077.14 596.8 1075.94 599.333 1075.94 602.4C1075.94 605.6 1077.07 608 1079.34 609.6C1081.6 611.067 1084.8 611.8 1088.94 611.8ZM1175.31 527.6L1153.91 506.2L1175.31 484.8L1196.51 506.2L1175.31 527.6ZM1161.31 632V565.8L1157.11 549.8L1161.11 537.6H1189.11V632H1161.31ZM1210.71 632V522.4L1206.51 502.4L1210.71 490.4H1238.71V632H1210.71ZM1303.29 634C1287.03 634 1275.09 629.733 1267.49 621.2C1259.89 612.667 1256.09 600.533 1256.09 584.8C1256.09 568.933 1259.89 556.8 1267.49 548.4C1275.09 539.867 1287.03 535.6 1303.29 535.6C1320.09 535.6 1332.09 539.867 1339.29 548.4C1346.63 556.8 1350.29 568.933 1350.29 584.8C1350.29 600.533 1346.63 612.667 1339.29 621.2C1332.09 629.733 1320.09 634 1303.29 634ZM1303.29 614C1308.76 614 1313.23 611.867 1316.69 607.6C1320.29 603.333 1322.09 595.733 1322.09 584.8C1322.09 573.867 1320.29 566.267 1316.69 562C1313.23 557.733 1308.76 555.6 1303.29 555.6C1297.69 555.6 1293.09 557.733 1289.49 562C1286.03 566.267 1284.29 573.867 1284.29 584.8C1284.29 595.733 1286.09 603.333 1289.69 607.6C1293.29 611.867 1297.83 614 1303.29 614ZM1368.54 632V569.4L1364.34 549.4L1368.54 537.4H1387.74L1391.74 542C1391.74 542 1392.61 541.467 1394.34 540.4C1396.21 539.2 1398.81 538.067 1402.14 537C1405.48 535.933 1409.54 535.4 1414.34 535.4C1417.01 535.4 1419.68 535.6 1422.34 536C1425.01 536.4 1427.08 536.933 1428.54 537.6L1441.54 550.6L1430.54 570.2L1403.14 556.4L1396.14 559.2V632H1368.54Z" fill="white"/>
<path d="M978 632H977V633H978V632ZM978 516H979V514.954L977.955 515.001L978 516ZM934 518H933V519.046L934.045 518.999L934 518ZM934 490.4V489.4H933V490.4H934ZM1051 490.4H1052V489.4H1051V490.4ZM1051 518L1050.96 518.999L1052 519.045V518H1051ZM1006 516L1006.04 515.001L1005 514.955V516H1006ZM1006 600H1005V600.055L1005.01 600.109L1006 600ZM1008.2 620L1009.18 620.18L1009.21 620.036L1009.19 619.891L1008.2 620ZM1006 632V633H1006.83L1006.98 632.18L1006 632ZM979 632V516H977V632H979ZM977.955 515.001L933.955 517.001L934.045 518.999L978.045 516.999L977.955 515.001ZM935 518V490.4H933V518H935ZM934 491.4H1051V489.4H934V491.4ZM1050 490.4V518H1052V490.4H1050ZM1051.04 517.001L1006.04 515.001L1005.96 516.999L1050.96 518.999L1051.04 517.001ZM1005 516V600H1007V516H1005ZM1005.01 600.109L1007.21 620.109L1009.19 619.891L1006.99 599.891L1005.01 600.109ZM1007.22 619.82L1005.02 631.82L1006.98 632.18L1009.18 620.18L1007.22 619.82ZM1006 631H978V633H1006V631ZM1055.14 627.2L1054.53 627.996L1054.54 628.003L1054.55 628.01L1055.14 627.2ZM1055.74 582.2L1056.37 582.975L1056.38 582.967L1055.74 582.2ZM1100.14 576L1099.83 576.952L1099.84 576.954L1100.14 576ZM1108.54 579L1108.09 579.894L1108.68 580.191L1109.19 579.759L1108.54 579ZM1109.94 577.8L1110.59 578.559L1110.94 578.26V577.8H1109.94ZM1108.94 567.2L1109.91 566.988L1109.91 566.988L1108.94 567.2ZM1104.34 560.2L1103.75 561.011L1103.77 561.022L1103.78 561.032L1104.34 560.2ZM1068.74 559.8L1068.54 558.82L1068.53 558.821L1068.74 559.8ZM1051.94 563.8H1050.94V565.132L1052.22 564.76L1051.94 563.8ZM1051.94 541.8L1051.6 540.858L1050.94 541.094V541.8H1051.94ZM1070.74 537.8L1070.88 538.79L1070.89 538.789L1070.89 538.788L1070.74 537.8ZM1118.14 539.2L1117.74 540.117L1117.75 540.123L1117.77 540.128L1118.14 539.2ZM1130.34 548L1129.54 548.6L1129.54 548.609L1129.55 548.618L1130.34 548ZM1136.34 560.4L1135.36 560.629L1135.37 560.646L1135.37 560.663L1136.34 560.4ZM1138.14 600.2H1137.14V600.298L1137.16 600.394L1138.14 600.2ZM1142.14 620.4L1143.08 620.721L1143.17 620.468L1143.12 620.206L1142.14 620.4ZM1138.14 632.2V633.2H1138.85L1139.08 632.521L1138.14 632.2ZM1111.94 632.2H1110.94V633.2H1111.94V632.2ZM1111.94 622.4H1112.94V621.782L1112.38 621.506L1111.94 622.4ZM1109.94 621.4L1110.38 620.506L1109.66 620.144L1109.16 620.775L1109.94 621.4ZM1104.34 626.4L1103.74 625.6L1103.73 625.607L1103.72 625.615L1104.34 626.4ZM1093.94 631.8L1094.26 632.746L1094.27 632.743L1094.28 632.74L1093.94 631.8ZM1102.34 610.2L1102.03 609.248L1102.02 609.251L1102.34 610.2ZM1109.94 607L1110.46 607.852L1110.94 607.559V607H1109.94ZM1105.34 595.6L1104.68 596.357L1104.69 596.364L1104.7 596.371L1105.34 595.6ZM1079.54 594.8L1080.18 595.568L1080.18 595.568L1079.54 594.8ZM1079.34 609.6L1078.76 610.417L1078.78 610.429L1078.79 610.44L1079.34 609.6ZM1077.94 633C1069.18 633 1061.79 630.781 1055.72 626.39L1054.55 628.01C1061.01 632.685 1068.83 635 1077.94 635V633ZM1055.74 626.404C1049.92 621.975 1046.94 615.112 1046.94 605.6H1044.94C1044.94 615.555 1048.09 623.091 1054.53 627.996L1055.74 626.404ZM1046.94 605.6C1046.94 595.562 1050.12 588.077 1056.37 582.975L1055.11 581.425C1048.29 586.99 1044.94 595.105 1044.94 605.6H1046.94ZM1056.38 582.967C1062.69 577.689 1071.17 575 1081.94 575V573C1070.84 573 1061.86 575.777 1055.1 581.433L1056.38 582.967ZM1081.94 575C1089.91 575 1095.85 575.667 1099.83 576.952L1100.44 575.048C1096.16 573.667 1089.97 573 1081.94 573V575ZM1099.84 576.954C1104.12 578.292 1106.84 579.27 1108.09 579.894L1108.98 578.106C1107.57 577.397 1104.69 576.375 1100.44 575.046L1099.84 576.954ZM1109.19 579.759L1110.59 578.559L1109.29 577.041L1107.89 578.241L1109.19 579.759ZM1110.94 577.8C1110.94 573.747 1110.6 570.14 1109.91 566.988L1107.96 567.412C1108.61 570.393 1108.94 573.853 1108.94 577.8H1110.94ZM1109.91 566.988C1109.2 563.692 1107.53 561.125 1104.89 559.368L1103.78 561.032C1105.95 562.475 1107.34 564.575 1107.96 567.412L1109.91 566.988ZM1104.92 559.389C1102.27 557.473 1098.28 556.6 1093.14 556.6V558.6C1098.13 558.6 1101.61 559.461 1103.75 561.011L1104.92 559.389ZM1093.14 556.6C1084.02 556.6 1075.82 557.337 1068.54 558.82L1068.94 560.78C1076.06 559.329 1084.12 558.6 1093.14 558.6V556.6ZM1068.53 558.821C1061.46 560.29 1055.83 561.629 1051.66 562.84L1052.22 564.76C1056.31 563.571 1061.88 562.244 1068.94 560.779L1068.53 558.821ZM1052.94 563.8V541.8H1050.94V563.8H1052.94ZM1052.27 542.742C1056.31 541.31 1062.5 539.988 1070.88 538.79L1070.6 536.81C1062.18 538.012 1055.83 539.357 1051.6 540.858L1052.27 542.742ZM1070.89 538.788C1079.24 537.464 1088.25 536.8 1097.94 536.8V534.8C1088.16 534.8 1079.04 535.47 1070.58 536.812L1070.89 538.788ZM1097.94 536.8C1106.12 536.8 1112.71 537.924 1117.74 540.117L1118.54 538.283C1113.17 535.943 1106.28 534.8 1097.94 534.8V536.8ZM1117.77 540.128C1122.97 542.209 1126.87 545.044 1129.54 548.6L1131.14 547.4C1128.2 543.489 1123.97 540.457 1118.51 538.272L1117.77 540.128ZM1129.55 548.618C1132.4 552.239 1134.33 556.24 1135.36 560.629L1137.31 560.171C1136.21 555.493 1134.15 551.228 1131.12 547.382L1129.55 548.618ZM1135.37 560.663C1136.55 564.981 1137.14 569.292 1137.14 573.6H1139.14C1139.14 569.108 1138.52 564.619 1137.3 560.137L1135.37 560.663ZM1137.14 573.6V600.2H1139.14V573.6H1137.14ZM1137.16 600.394L1141.16 620.594L1143.12 620.206L1139.12 600.006L1137.16 600.394ZM1141.19 620.079L1137.19 631.879L1139.08 632.521L1143.08 620.721L1141.19 620.079ZM1138.14 631.2H1111.94V633.2H1138.14V631.2ZM1112.94 632.2V622.4H1110.94V632.2H1112.94ZM1112.38 621.506L1110.38 620.506L1109.49 622.294L1111.49 623.294L1112.38 621.506ZM1109.16 620.775C1108.17 622.007 1106.39 623.612 1103.74 625.6L1104.94 627.2C1107.62 625.188 1109.57 623.46 1110.72 622.025L1109.16 620.775ZM1103.72 625.615C1101.3 627.526 1097.94 629.282 1093.6 630.86L1094.28 632.74C1098.74 631.118 1102.31 629.274 1104.96 627.185L1103.72 625.615ZM1093.61 630.854C1089.48 632.273 1084.27 633 1077.94 633V635C1084.41 635 1089.86 634.26 1094.26 632.746L1093.61 630.854ZM1088.94 612.8C1094.71 612.8 1099.3 612.265 1102.65 611.149L1102.02 609.251C1098.97 610.268 1094.63 610.8 1088.94 610.8V612.8ZM1102.64 611.152C1106.01 610.076 1108.63 608.98 1110.46 607.852L1109.41 606.148C1107.78 607.153 1105.34 608.191 1102.03 609.248L1102.64 611.152ZM1110.94 607V603.2H1108.94V607H1110.94ZM1110.94 603.2C1110.94 600.232 1109.14 597.444 1105.97 594.829L1104.7 596.371C1107.67 598.823 1108.94 601.101 1108.94 603.2H1110.94ZM1105.99 594.843C1102.78 592.072 1097.61 590.8 1090.74 590.8V592.8C1097.46 592.8 1102.03 594.062 1104.68 596.357L1105.99 594.843ZM1090.74 590.8C1085.57 590.8 1081.56 591.814 1078.9 594.032L1080.18 595.568C1082.32 593.786 1085.77 592.8 1090.74 592.8V590.8ZM1078.9 594.032C1076.27 596.218 1074.94 599.03 1074.94 602.4H1076.94C1076.94 599.636 1078 597.382 1080.18 595.568L1078.9 594.032ZM1074.94 602.4C1074.94 605.868 1076.19 608.599 1078.76 610.417L1079.91 608.783C1077.96 607.401 1076.94 605.332 1076.94 602.4H1074.94ZM1078.79 610.44C1081.29 612.053 1084.71 612.8 1088.94 612.8V610.8C1084.9 610.8 1081.92 610.081 1079.88 608.76L1078.79 610.44ZM1175.31 527.6L1174.61 528.307L1175.32 529.018L1176.02 528.304L1175.31 527.6ZM1153.91 506.2L1153.21 505.493L1152.5 506.2L1153.21 506.907L1153.91 506.2ZM1175.31 484.8L1176.02 484.096L1175.32 483.382L1174.61 484.093L1175.31 484.8ZM1196.51 506.2L1197.22 506.904L1197.92 506.2L1197.22 505.496L1196.51 506.2ZM1161.31 632H1160.31V633H1161.31V632ZM1161.31 565.8H1162.31V565.671L1162.28 565.546L1161.31 565.8ZM1157.11 549.8L1156.16 549.488L1156.07 549.769L1156.15 550.054L1157.11 549.8ZM1161.11 537.6V536.6H1160.39L1160.16 537.288L1161.11 537.6ZM1189.11 537.6H1190.11V536.6H1189.11V537.6ZM1189.11 632V633H1190.11V632H1189.11ZM1176.02 526.893L1154.62 505.493L1153.21 506.907L1174.61 528.307L1176.02 526.893ZM1154.62 506.907L1176.02 485.507L1174.61 484.093L1153.21 505.493L1154.62 506.907ZM1174.6 485.504L1195.8 506.904L1197.22 505.496L1176.02 484.096L1174.6 485.504ZM1195.8 505.496L1174.6 526.896L1176.02 528.304L1197.22 506.904L1195.8 505.496ZM1162.31 632V565.8H1160.31V632H1162.31ZM1162.28 565.546L1158.08 549.546L1156.15 550.054L1160.35 566.054L1162.28 565.546ZM1158.06 550.112L1162.06 537.912L1160.16 537.288L1156.16 549.488L1158.06 550.112ZM1161.11 538.6H1189.11V536.6H1161.11V538.6ZM1188.11 537.6V632H1190.11V537.6H1188.11ZM1189.11 631H1161.31V633H1189.11V631ZM1210.71 632H1209.71V633H1210.71V632ZM1210.71 522.4H1211.71V522.296L1211.69 522.194L1210.71 522.4ZM1206.51 502.4L1205.57 502.07L1205.48 502.333L1205.53 502.606L1206.51 502.4ZM1210.71 490.4V489.4H1210L1209.77 490.07L1210.71 490.4ZM1238.71 490.4H1239.71V489.4H1238.71V490.4ZM1238.71 632V633H1239.71V632H1238.71ZM1211.71 632V522.4H1209.71V632H1211.71ZM1211.69 522.194L1207.49 502.194L1205.53 502.606L1209.73 522.606L1211.69 522.194ZM1207.46 502.73L1211.66 490.73L1209.77 490.07L1205.57 502.07L1207.46 502.73ZM1210.71 491.4H1238.71V489.4H1210.71V491.4ZM1237.71 490.4V632H1239.71V490.4H1237.71ZM1238.71 631H1210.71V633H1238.71V631ZM1267.49 621.2L1266.75 621.865L1266.75 621.865L1267.49 621.2ZM1267.49 548.4L1268.24 549.071L1268.24 549.065L1267.49 548.4ZM1339.29 548.4L1338.53 549.045L1338.53 549.051L1338.54 549.058L1339.29 548.4ZM1339.29 621.2L1338.54 620.548L1338.53 620.555L1339.29 621.2ZM1316.69 607.6L1315.93 606.955L1315.92 606.962L1315.92 606.969L1316.69 607.6ZM1316.69 562L1315.92 562.631L1315.92 562.638L1315.93 562.645L1316.69 562ZM1289.49 562L1288.73 561.355L1288.72 561.362L1288.72 561.369L1289.49 562ZM1289.69 607.6L1290.46 606.955L1290.46 606.955L1289.69 607.6ZM1303.29 633C1287.19 633 1275.58 628.777 1268.24 620.535L1266.75 621.865C1274.61 630.689 1286.87 635 1303.29 635V633ZM1268.24 620.535C1260.86 612.244 1257.09 600.381 1257.09 584.8H1255.09C1255.09 600.686 1258.93 613.089 1266.75 621.865L1268.24 620.535ZM1257.09 584.8C1257.09 569.082 1260.86 557.225 1268.24 549.071L1266.75 547.729C1258.93 556.375 1255.09 568.785 1255.09 584.8H1257.09ZM1268.24 549.065C1275.58 540.823 1287.19 536.6 1303.29 536.6V534.6C1286.87 534.6 1274.61 538.911 1266.75 547.735L1268.24 549.065ZM1303.29 536.6C1319.95 536.6 1331.6 540.831 1338.53 549.045L1340.06 547.755C1332.59 538.902 1320.24 534.6 1303.29 534.6V536.6ZM1338.54 549.058C1345.66 557.211 1349.29 569.074 1349.29 584.8H1351.29C1351.29 568.793 1347.6 556.388 1340.05 547.742L1338.54 549.058ZM1349.29 584.8C1349.29 600.389 1345.66 612.257 1338.54 620.548L1340.05 621.852C1347.59 613.076 1351.29 600.678 1351.29 584.8H1349.29ZM1338.53 620.555C1331.6 628.769 1319.95 633 1303.29 633V635C1320.24 635 1332.59 630.698 1340.06 621.845L1338.53 620.555ZM1303.29 615C1309.06 615 1313.81 612.729 1317.47 608.231L1315.92 606.969C1312.64 611.004 1308.46 613 1303.29 613V615ZM1317.46 608.245C1321.3 603.691 1323.09 595.775 1323.09 584.8H1321.09C1321.09 595.691 1319.29 602.976 1315.93 606.955L1317.46 608.245ZM1323.09 584.8C1323.09 573.825 1321.3 565.909 1317.46 561.355L1315.93 562.645C1319.29 566.624 1321.09 573.909 1321.09 584.8H1323.09ZM1317.47 561.369C1313.81 556.871 1309.06 554.6 1303.29 554.6V556.6C1308.46 556.6 1312.64 558.596 1315.92 562.631L1317.47 561.369ZM1303.29 554.6C1297.4 554.6 1292.52 556.862 1288.73 561.355L1290.26 562.645C1293.67 558.604 1297.99 556.6 1303.29 556.6V554.6ZM1288.72 561.369C1285.02 565.921 1283.29 573.829 1283.29 584.8H1285.29C1285.29 573.904 1287.03 566.612 1290.27 562.631L1288.72 561.369ZM1283.29 584.8C1283.29 595.775 1285.09 603.691 1288.93 608.245L1290.46 606.955C1287.1 602.976 1285.29 595.691 1285.29 584.8H1283.29ZM1288.93 608.245C1292.71 612.731 1297.53 615 1303.29 615V613C1298.13 613 1293.87 611.002 1290.46 606.955L1288.93 608.245ZM1368.54 632H1367.54V633H1368.54V632ZM1368.54 569.4H1369.54V569.296L1369.52 569.194L1368.54 569.4ZM1364.34 549.4L1363.4 549.07L1363.31 549.333L1363.37 549.606L1364.34 549.4ZM1368.54 537.4V536.4H1367.83L1367.6 537.07L1368.54 537.4ZM1387.74 537.4L1388.5 536.744L1388.2 536.4H1387.74V537.4ZM1391.74 542L1390.99 542.656L1391.55 543.296L1392.27 542.852L1391.74 542ZM1394.34 540.4L1394.87 541.252L1394.88 541.246L1394.88 541.241L1394.34 540.4ZM1402.14 537L1401.84 536.048L1401.84 536.048L1402.14 537ZM1428.54 537.6L1429.25 536.893L1429.12 536.765L1428.96 536.69L1428.54 537.6ZM1441.54 550.6L1442.42 551.089L1442.79 550.429L1442.25 549.893L1441.54 550.6ZM1430.54 570.2L1430.09 571.093L1430.95 571.523L1431.42 570.689L1430.54 570.2ZM1403.14 556.4L1403.59 555.507L1403.19 555.304L1402.77 555.472L1403.14 556.4ZM1396.14 559.2L1395.77 558.272L1395.14 558.523V559.2H1396.14ZM1396.14 632V633H1397.14V632H1396.14ZM1369.54 632V569.4H1367.54V632H1369.54ZM1369.52 569.194L1365.32 549.194L1363.37 549.606L1367.57 569.606L1369.52 569.194ZM1365.29 549.73L1369.49 537.73L1367.6 537.07L1363.4 549.07L1365.29 549.73ZM1368.54 538.4H1387.74V536.4H1368.54V538.4ZM1386.99 538.056L1390.99 542.656L1392.5 541.344L1388.5 536.744L1386.99 538.056ZM1391.74 542C1392.27 542.852 1392.27 542.852 1392.27 542.852C1392.27 542.852 1392.27 542.852 1392.27 542.852C1392.27 542.852 1392.27 542.852 1392.27 542.852C1392.27 542.852 1392.27 542.851 1392.27 542.851C1392.27 542.851 1392.27 542.851 1392.27 542.851C1392.27 542.851 1392.27 542.85 1392.27 542.85C1392.27 542.85 1392.27 542.849 1392.27 542.849C1392.27 542.849 1392.27 542.849 1392.27 542.849C1392.27 542.849 1392.27 542.849 1392.27 542.848C1392.27 542.848 1392.27 542.848 1392.27 542.848C1392.27 542.848 1392.27 542.848 1392.27 542.848C1392.27 542.848 1392.27 542.848 1392.27 542.848C1392.27 542.847 1392.28 542.847 1392.28 542.847C1392.28 542.847 1392.28 542.846 1392.28 542.846C1392.28 542.846 1392.28 542.846 1392.28 542.846C1392.28 542.846 1392.28 542.846 1392.28 542.845C1392.28 542.845 1392.28 542.843 1392.28 542.842C1392.28 542.842 1392.29 542.838 1392.29 542.838C1392.29 542.836 1392.3 542.829 1392.31 542.827C1392.31 542.825 1392.35 542.802 1392.36 542.795C1392.36 542.794 1392.36 542.793 1392.37 542.791C1392.37 542.79 1392.37 542.786 1392.38 542.786C1392.38 542.785 1392.39 542.776 1392.39 542.775C1392.39 542.775 1392.39 542.774 1392.39 542.774C1392.4 542.773 1392.4 542.773 1392.4 542.772C1392.4 542.772 1392.4 542.771 1392.4 542.771C1392.4 542.77 1392.4 542.77 1392.4 542.77C1392.4 542.769 1392.4 542.769 1392.4 542.768C1392.4 542.768 1392.41 542.767 1392.41 542.767C1392.41 542.766 1392.41 542.766 1392.41 542.765C1392.41 542.765 1392.41 542.764 1392.41 542.764C1392.41 542.762 1392.41 542.762 1392.42 542.761C1392.42 542.76 1392.42 542.759 1392.42 542.758C1392.42 542.756 1392.43 542.753 1392.43 542.752C1392.53 542.69 1392.71 542.58 1392.92 542.452C1392.96 542.424 1393.21 542.271 1393.28 542.227C1393.31 542.208 1393.46 542.118 1393.5 542.095C1393.58 542.041 1393.64 542.01 1393.73 541.952C1393.79 541.918 1393.92 541.834 1393.98 541.795C1393.99 541.792 1394.11 541.717 1394.12 541.713C1394.13 541.703 1394.24 541.637 1394.26 541.627C1394.29 541.606 1394.51 541.47 1394.55 541.445C1394.66 541.379 1394.75 541.322 1394.87 541.252L1393.82 539.548C1393.8 539.56 1393.76 539.586 1393.74 539.598C1393.73 539.604 1393.73 539.604 1393.72 539.61C1393.72 539.612 1393.71 539.614 1393.71 539.616C1393.71 539.618 1393.7 539.62 1393.7 539.622C1393.69 539.631 1393.69 539.626 1393.68 539.635C1393.68 539.637 1393.66 539.645 1393.66 539.647C1393.62 539.673 1393.55 539.717 1393.5 539.742C1393.46 539.768 1393.4 539.809 1393.36 539.834C1393.34 539.841 1393.29 539.872 1393.28 539.879C1393.25 539.897 1393.24 539.906 1393.21 539.923C1393.08 540.006 1392.79 540.183 1392.68 540.248C1392.29 540.487 1392.15 540.576 1391.87 540.748C1391.85 540.76 1391.81 540.786 1391.79 540.797C1391.74 540.829 1391.77 540.811 1391.72 540.842C1391.71 540.844 1391.68 540.862 1391.68 540.864C1391.66 540.875 1391.67 540.873 1391.65 540.884C1391.64 540.887 1391.64 540.892 1391.63 540.894C1391.63 540.895 1391.62 540.903 1391.62 540.904C1391.62 540.905 1391.61 540.906 1391.61 540.907C1391.61 540.907 1391.61 540.908 1391.61 540.909C1391.61 540.91 1391.6 540.913 1391.6 540.914C1391.6 540.915 1391.6 540.915 1391.6 540.916C1391.6 540.917 1391.59 540.918 1391.59 540.919C1391.59 540.921 1391.59 540.921 1391.59 540.923C1391.56 540.938 1391.58 540.928 1391.56 540.942C1391.55 540.945 1391.53 540.956 1391.53 540.959C1391.52 540.961 1391.47 540.991 1391.47 540.992C1391.47 540.993 1391.47 540.993 1391.47 540.994C1391.47 540.995 1391.47 540.995 1391.47 540.996C1391.47 540.997 1391.47 540.997 1391.46 540.998C1391.46 540.999 1391.46 540.999 1391.46 541C1391.46 541.003 1391.45 541.004 1391.45 541.007C1391.43 541.016 1391.44 541.013 1391.43 541.022C1391.42 541.022 1391.42 541.023 1391.42 541.024C1391.42 541.024 1391.42 541.025 1391.42 541.025C1391.42 541.026 1391.42 541.026 1391.42 541.027C1391.42 541.028 1391.41 541.028 1391.41 541.029C1391.41 541.029 1391.4 541.035 1391.4 541.035C1391.4 541.039 1391.4 541.038 1391.39 541.042C1391.39 541.043 1391.39 541.045 1391.39 541.045C1391.39 541.046 1391.39 541.046 1391.38 541.047C1391.38 541.047 1391.38 541.048 1391.38 541.048C1391.34 541.076 1391.35 541.069 1391.31 541.092C1391.31 541.094 1391.28 541.109 1391.28 541.109C1391.28 541.112 1391.28 541.114 1391.27 541.117C1391.27 541.117 1391.27 541.117 1391.27 541.118C1391.27 541.118 1391.27 541.118 1391.27 541.118C1391.27 541.119 1391.27 541.119 1391.27 541.119C1391.27 541.12 1391.27 541.12 1391.27 541.12C1391.26 541.121 1391.26 541.123 1391.26 541.123C1391.26 541.125 1391.26 541.125 1391.26 541.126C1391.25 541.127 1391.25 541.127 1391.25 541.127C1391.25 541.127 1391.25 541.128 1391.25 541.128C1391.25 541.128 1391.25 541.129 1391.25 541.129C1391.25 541.13 1391.24 541.134 1391.24 541.134C1391.24 541.138 1391.23 541.14 1391.23 541.142C1391.23 541.142 1391.23 541.143 1391.23 541.144C1391.23 541.144 1391.23 541.145 1391.23 541.145C1391.22 541.146 1391.22 541.146 1391.22 541.147C1391.22 541.147 1391.22 541.147 1391.22 541.147C1391.22 541.147 1391.22 541.147 1391.22 541.147C1391.22 541.147 1391.22 541.147 1391.22 541.147C1391.22 541.147 1391.22 541.147 1391.22 541.147C1391.22 541.148 1391.22 541.148 1391.22 541.148C1391.22 541.148 1391.22 541.148 1391.22 541.148C1391.22 541.148 1391.22 541.148 1391.22 541.148C1391.22 541.148 1391.22 541.148 1391.22 541.148C1391.22 541.148 1391.22 541.148 1391.22 541.148C1391.22 541.148 1391.22 541.148 1391.22 541.148C1391.22 541.148 1391.22 541.148 1391.22 541.148C1391.22 541.148 1391.22 541.148 1391.22 541.148C1391.22 541.148 1391.22 541.148 1391.22 541.148C1391.22 541.148 1391.22 541.148 1391.74 542ZM1394.88 541.241C1396.65 540.107 1399.16 539.006 1402.45 537.952L1401.84 536.048C1398.46 537.127 1395.77 538.293 1393.8 539.559L1394.88 541.241ZM1402.45 537.952C1405.65 536.927 1409.61 536.4 1414.34 536.4V534.4C1409.48 534.4 1405.3 534.94 1401.84 536.048L1402.45 537.952ZM1414.34 536.4C1416.96 536.4 1419.58 536.596 1422.2 536.989L1422.49 535.011C1419.78 534.604 1417.06 534.4 1414.34 534.4V536.4ZM1422.2 536.989C1424.82 537.383 1426.79 537.899 1428.13 538.51L1428.96 536.69C1427.37 535.967 1425.2 535.417 1422.49 535.011L1422.2 536.989ZM1427.84 538.307L1440.84 551.307L1442.25 549.893L1429.25 536.893L1427.84 538.307ZM1440.67 550.111L1429.67 569.711L1431.42 570.689L1442.42 551.089L1440.67 550.111ZM1430.99 569.307L1403.59 555.507L1402.69 557.293L1430.09 571.093L1430.99 569.307ZM1402.77 555.472L1395.77 558.272L1396.52 560.128L1403.52 557.328L1402.77 555.472ZM1395.14 559.2V632H1397.14V559.2H1395.14ZM1396.14 631H1368.54V633H1396.14V631Z" fill="#E5E5E5"/>
</g>
</g>
<defs>
<filter id="filter0_d" x="55" y="61" width="1679.75" height="507.5" filterUnits="userSpaceOnUse" color-interpolation-filters="sRGB">
<feFlood flood-opacity="0" result="BackgroundImageFix"/>
<feColorMatrix in="SourceAlpha" type="matrix" values="0 0 0 0 0 0 0 0 0 0 0 0 0 0 0 0 0 0 127 0"/>
<feOffset dy="4"/>
<feGaussianBlur stdDeviation="2"/>
<feColorMatrix type="matrix" values="0 0 0 0 0 0 0 0 0 0 0 0 0 0 0 0 0 0 0.25 0"/>
<feBlend mode="normal" in2="BackgroundImageFix" result="effect1_dropShadow"/>
<feBlend mode="normal" in="SourceGraphic" in2="effect1_dropShadow" result="shape"/>
</filter>
<filter id="filter1_d" x="929" y="483.382" width="517.787" height="159.618" filterUnits="userSpaceOnUse" color-interpolation-filters="sRGB">
<feFlood flood-opacity="0" result="BackgroundImageFix"/>
<feColorMatrix in="SourceAlpha" type="matrix" values="0 0 0 0 0 0 0 0 0 0 0 0 0 0 0 0 0 0 127 0"/>
<feOffset dy="4"/>
<feGaussianBlur stdDeviation="2"/>
<feColorMatrix type="matrix" values="0 0 0 0 0 0 0 0 0 0 0 0 0 0 0 0 0 0 0.25 0"/>
<feBlend mode="normal" in2="BackgroundImageFix" result="effect1_dropShadow"/>
<feBlend mode="normal" in="SourceGraphic" in2="effect1_dropShadow" result="shape"/>
</filter>
<clipPath id="clip0">
<rect width="1800" height="680" fill="white"/>
</clipPath>
</defs>
</svg>
